<svg width="230" height="32" viewBox="0 0 230 32" fill="none" xmlns="http://www.w3.org/2000/svg">
<path d="M40.4708 31.3149L53.1136 0.886648H53.3514L65.9941 31.3149H61.159L51.9642 7.61713L55.0159 5.56171L44.6322 31.3149H40.4708ZM48.1595 20.3526H58.3847L59.8511 24.0605H46.8913L48.1595 20.3526Z" fill="black"/>
<path d="M69.9255 14.4282L70.2822 18.2972L70.1237 17.7733C70.6785 16.5642 71.5372 15.597 72.6998 14.8715C73.8623 14.1192 75.2363 13.7431 76.8216 13.7431C78.3804 13.7431 79.6619 14.2133 80.6659 15.1537C81.6964 16.094 82.2248 17.3165 82.2512 18.8212V31.3149H78.1691V20.272C78.1426 19.4123 77.8916 18.7137 77.4161 18.1763C76.9405 17.6121 76.2007 17.3165 75.1966 17.2897C74.2983 17.2897 73.4792 17.5718 72.7394 18.136C71.9996 18.6734 71.4183 19.4123 70.9956 20.3526C70.5728 21.293 70.3615 22.3812 70.3615 23.6171V31.3149H66.2793V14.4282H69.9255Z" fill="black"/>
<path d="M89.8427 32C88.3102 32 87.0552 31.5298 86.0776 30.5894C85.1 29.649 84.5848 28.44 84.532 26.9622V14.4282H88.6141V25.471C88.6669 26.3308 88.9047 27.0428 89.3275 27.6071C89.7766 28.1444 90.49 28.4265 91.4676 28.4534C92.366 28.4534 93.1586 28.1847 93.8456 27.6474C94.559 27.0831 95.1138 26.3308 95.5102 25.3904C95.9329 24.4232 96.1443 23.3216 96.1443 22.0856V14.4282H100.226V31.3149H96.5406L96.2235 27.4055L96.3821 28.0504C96.0386 28.8027 95.5498 29.4878 94.9157 30.1058C94.2815 30.6969 93.5285 31.1537 92.6566 31.4761C91.7847 31.8254 90.8467 32 89.8427 32Z" fill="black"/>
<path d="M112.818 31.7179C111.312 31.7179 109.991 31.4089 108.855 30.7909C107.745 30.1461 106.847 29.3401 106.16 28.3728L106.596 27.204V31.3149H102.514V0H106.556V18.0957L106.477 16.6045C107.111 15.7448 108.036 15.0462 109.251 14.5088C110.467 13.9715 111.827 13.7028 113.333 13.7028C114.813 13.7028 116.16 14.0655 117.376 14.7909C118.618 15.5164 119.595 16.5508 120.309 17.8942C121.048 19.2107 121.418 20.7825 121.418 22.6096C121.418 24.4903 121.022 26.1159 120.229 27.4861C119.437 28.8564 118.38 29.9043 117.059 30.6297C115.764 31.3552 114.351 31.7179 112.818 31.7179ZM111.946 28.2116C112.95 28.2116 113.849 27.9698 114.641 27.4861C115.46 27.0025 116.108 26.3308 116.583 25.471C117.059 24.6113 117.297 23.644 117.297 22.5693C117.297 21.5214 117.059 20.581 116.583 19.7481C116.108 18.9152 115.46 18.2569 114.641 17.7733C113.849 17.2628 112.95 17.0076 111.946 17.0076C111.074 17.0076 110.268 17.1688 109.529 17.4912C108.789 17.8136 108.168 18.2569 107.666 18.8212C107.164 19.3854 106.807 20.0437 106.596 20.796V24.3829C106.807 25.1352 107.164 25.8069 107.666 26.398C108.168 26.9622 108.776 27.4055 109.489 27.728C110.229 28.0504 111.048 28.2116 111.946 28.2116Z" fill="black"/>
<path d="M122.276 14.4282H126.358V31.3149H122.276V14.4282ZM122.038 8.38287C122.038 7.73804 122.289 7.20067 122.791 6.77078C123.293 6.34089 123.835 6.12595 124.416 6.12595C125.024 6.12595 125.565 6.34089 126.041 6.77078C126.516 7.20067 126.754 7.73804 126.754 8.38287C126.754 9.02771 126.516 9.56507 126.041 9.99496C125.565 10.398 125.024 10.5995 124.416 10.5995C123.835 10.5995 123.293 10.398 122.791 9.99496C122.289 9.56507 122.038 9.02771 122.038 8.38287Z" fill="black"/>
<path d="M133.443 31.6776C132.227 31.6776 131.052 31.4626 129.916 31.0327C128.779 30.576 127.841 29.9177 127.102 29.0579L128.845 26.7204C129.559 27.3921 130.272 27.9026 130.986 28.2519C131.725 28.5743 132.426 28.7355 133.086 28.7355C133.615 28.7355 134.09 28.6818 134.513 28.5743C134.936 28.44 135.279 28.225 135.543 27.9295C135.808 27.6339 135.94 27.2443 135.94 26.7607C135.94 26.1965 135.755 25.7532 135.385 25.4307C135.015 25.1083 134.539 24.8396 133.958 24.6247C133.377 24.4097 132.756 24.2082 132.095 24.0202C130.695 23.5634 129.638 22.9186 128.925 22.0856C128.211 21.2259 127.855 20.2183 127.855 19.063C127.855 18.1763 128.066 17.3434 128.489 16.5642C128.938 15.7582 129.612 15.0999 130.51 14.5894C131.408 14.0789 132.518 13.8237 133.839 13.8237C135.055 13.8237 136.125 13.9715 137.049 14.267C137.974 14.5357 138.833 15.0059 139.625 15.6776L138.04 18.1763C137.565 17.6927 136.997 17.33 136.336 17.0882C135.702 16.8195 135.121 16.6717 134.592 16.6448C134.117 16.6448 133.681 16.7254 133.284 16.8867C132.888 17.021 132.571 17.2359 132.333 17.5315C132.095 17.8002 131.976 18.1226 131.976 18.4987C131.95 19.0361 132.122 19.4794 132.492 19.8287C132.888 20.1511 133.39 20.4198 133.998 20.6348C134.605 20.8228 135.2 21.0243 135.781 21.2393C136.6 21.4811 137.327 21.817 137.961 22.2469C138.595 22.6499 139.097 23.1469 139.467 23.738C139.837 24.3291 140.022 25.0814 140.022 25.995C140.022 26.9891 139.784 27.9295 139.308 28.8161C138.833 29.6759 138.106 30.3745 137.129 30.9118C136.151 31.4223 134.922 31.6776 133.443 31.6776Z" fill="black"/>
<path d="M147.726 31.3149L160.369 0.886648H160.607L173.25 31.3149H168.414L159.22 7.61713L162.271 5.56171L151.888 31.3149H147.726ZM155.415 20.3526H165.64L167.107 24.0605H154.147L155.415 20.3526Z" fill="black"/>
<path d="M173.535 0H177.617V31.3149H173.535V0Z" fill="black"/>
<path d="M186.802 31.7582L177.409 14.4282H182.245L188.348 27.4861L185.851 27.3652L191.4 14.4282H195.958L186.961 31.7582H186.802Z" fill="black"/>
<path d="M203.179 31.7179C201.25 31.7179 199.599 31.3417 198.225 30.5894C196.851 29.8102 195.794 28.749 195.054 27.4055C194.315 26.0353 193.945 24.4769 193.945 22.7305C193.945 21.0647 194.354 19.56 195.173 18.2166C196.019 16.8463 197.142 15.7582 198.542 14.9521C199.969 14.1461 201.541 13.7431 203.258 13.7431C205.478 13.7431 207.314 14.4013 208.767 15.7179C210.247 17.0344 211.238 18.8749 211.74 21.2393L198.225 25.995L197.274 23.5768L208.093 19.6272L207.261 20.1511C206.944 19.3182 206.442 18.5928 205.755 17.9748C205.068 17.33 204.13 17.0076 202.941 17.0076C201.99 17.0076 201.131 17.2494 200.365 17.733C199.625 18.1898 199.031 18.8346 198.582 19.6675C198.159 20.4736 197.948 21.4274 197.948 22.529C197.948 23.6574 198.172 24.6516 198.621 25.5113C199.097 26.3442 199.731 27.0025 200.524 27.4861C201.343 27.9698 202.254 28.2116 203.258 28.2116C203.972 28.2116 204.645 28.0772 205.28 27.8086C205.94 27.5399 206.561 27.204 207.142 26.801L209.005 29.864C208.133 30.4282 207.182 30.885 206.151 31.2343C205.147 31.5567 204.157 31.7179 203.179 31.7179Z" fill="black"/>
<path d="M217.143 31.6776C215.928 31.6776 214.752 31.4626 213.616 31.0327C212.48 30.576 211.542 29.9177 210.802 29.0579L212.546 26.7204C213.259 27.3921 213.973 27.9026 214.686 28.2519C215.426 28.5743 216.126 28.7355 216.787 28.7355C217.315 28.7355 217.791 28.6818 218.213 28.5743C218.636 28.44 218.98 28.225 219.244 27.9295C219.508 27.6339 219.64 27.2443 219.64 26.7607C219.64 26.1965 219.455 25.7532 219.085 25.4307C218.715 25.1083 218.24 24.8396 217.658 24.6247C217.077 24.4097 216.456 24.2082 215.796 24.0202C214.395 23.5634 213.339 22.9186 212.625 22.0856C211.912 21.2259 211.555 20.2183 211.555 19.063C211.555 18.1763 211.766 17.3434 212.189 16.5642C212.638 15.7582 213.312 15.0999 214.21 14.5894C215.109 14.0789 216.218 13.8237 217.54 13.8237C218.755 13.8237 219.825 13.9715 220.75 14.267C221.675 14.5357 222.533 15.0059 223.326 15.6776L221.741 18.1763C221.265 17.6927 220.697 17.33 220.036 17.0882C219.402 16.8195 218.821 16.6717 218.293 16.6448C217.817 16.6448 217.381 16.7254 216.985 16.8867C216.588 17.021 216.271 17.2359 216.034 17.5315C215.796 17.8002 215.677 18.1226 215.677 18.4987C215.65 19.0361 215.822 19.4794 216.192 19.8287C216.588 20.1511 217.09 20.4198 217.698 20.6348C218.306 20.8228 218.9 21.0243 219.482 21.2393C220.301 21.4811 221.027 21.817 221.661 22.2469C222.295 22.6499 222.798 23.1469 223.167 23.738C223.537 24.3291 223.722 25.0814 223.722 25.995C223.722 26.9891 223.484 27.9295 223.009 28.8161C222.533 29.6759 221.807 30.3745 220.829 30.9118C219.851 31.4223 218.623 31.6776 217.143 31.6776Z" fill="black"/>
<path d="M225.561 29.0176C225.561 28.3728 225.786 27.8354 226.235 27.4055C226.71 26.9488 227.239 26.7204 227.82 26.7204C228.349 26.7204 228.837 26.9488 229.287 27.4055C229.762 27.8354 230 28.3728 230 29.0176C230 29.7162 229.762 30.2804 229.287 30.7103C228.837 31.1134 228.349 31.3149 227.82 31.3149C227.239 31.3149 226.71 31.1134 226.235 30.7103C225.786 30.2804 225.561 29.7162 225.561 29.0176Z" fill="black"/>
<path d="M17.5361 3.16031C18.163 2.85656 18.807 3.5601 18.4614 4.17126C16.8669 6.99103 14.1834 11.8568 14.1834 12.6655C14.1834 13.4614 16.6951 18.2262 18.2441 21.0889C18.5843 21.7177 17.8999 22.4162 17.2787 22.0731L0.367375 12.7342C-0.137329 12.4555 -0.117976 11.7142 0.400564 11.463L17.5361 3.16031Z" fill="black"/>
<path d="M21.9808 30.4253C21.3701 30.7613 20.6913 30.0922 21.0055 29.4638C22.4553 26.5649 24.8891 21.5659 24.8482 20.7583C24.8079 19.9635 22.0584 15.3355 20.3667 12.5572C19.9951 11.9469 20.6432 11.2137 21.281 11.524L38.6425 19.9711C39.1607 20.2232 39.1788 20.9645 38.6737 21.2424L21.9808 30.4253Z" fill="black"/>
</svg>
